<svg height="1554" viewBox="-29.771 0 1650 1554" width="1650" xmlns="http://www.w3.org/2000/svg"><g fill="#02489d"><path d="m1014.229 261s-28-31-65-31c0 0-81 0-136 175 0 0-47 153-47 380 0 0 0 214 44 365 0 0 44 153 108 153 0 0 45 0 83-84 0 0 38-84 54-221l120-30s-31 255-127 420c0 0-99 166-224 166 0 0-150 0-256-225 0 0-106-225-106-544 0 0 0-319 106-546 0 0 106-226 256-226 0 0 150 0 257 230z"/><path d="m1436.229 568s-207 171-537 254c0 0-331 82-594 28 0 0-263-56-302-217 0 0-33-134 112-282 0 0 143-147 400-245l17 66s-150 64-233 145c0 0-85 85-66 158 0 0 25 93 201 121 0 0 175 27 402-29 0 0 225-56 369-163 0 0 142-108 118-202 0 0-20-81-164-116l-22-86s187 7 311 69c0 0 127 62 153 167 0 0 41 160-165 332m1184-361v2l8 3 10-3 5-3 10 1s12 3 22 0h3l-50-6z"/><path d="m2307.229 35c-3 3-7 4-7 4l13 30h-9l9 29c6 33 6 98 6 98l-4 17-5 18 3 33c-1 13-16 28-16 28v16c-58 21-66 32-66 32l-31 9c-14 9-43 20-43 20-19 19-39 22-39 22l-3 2h-3v1h-8c11-22 0-45 0-45l-7-12-8-30c-7-24-12-26-12-26l-9 14-7 18h-6l-13 33-12 30-16 44c1 5-18 44-18 44l-8 8c0 28-12 36-12 36l-8 20c-6 15-7 13-7 13 1 8-5 50-5 50-3 42 11 50 11 50 6 9 3 12 3 12l15 30 5-1 6 10c10 23 31 17 31 17l38-11 8 34c4 22 12 28 12 28l29 6 30 3 29-13 65-15c42-9 63-20 63-20 17 32 14 58 14 58l-3 52 6 22 4 21 2 97 10 30-4 12v36l10 30 3 34h6l-3-31 11 2 2 15 3-1-2-19c-11-4-11-24-11-24 0-18 8-30 8-30 6 2 15 35 15 35 8 25 9 41 9 41h21v9l-6-5c-10 6-12 38-12 38-1 32 5 33 5 33 3 0 19-12 19-12l-4 6v3h6l3 17c7 0 7-41 7-41h4l7 6 3-3v-39l8 7 10-9 6-13c2-9-3-35-3-35 8-40 9-61 9-61v-22l29-65c8-25 9-65 9-65l3-67 12-17c11-10 12-16 12-16l23-65c18-47 30-52 30-52l58-13c38-12 35-32 35-32 19 0 27-83 27-83l16-82 14-27 6-63 11-62c3-29-14-43-14-43-11-10-42-18-42-18l-3 2c7 4 22 9 22 9 14 7 17 18 17 18 4 16-6 42-6 42-9 23-24 36-24 36l1 11c-4 14-27 41-27 41l-32 44-28 18c-38 1-50 13-50 13l-5-4c-6-9-6-55-6-55l-4-36c6-9 6-15 6-15v-20c10-12 69-34 69-34 53-22 59-43 59-43l3 3c-1 9 8 11 8 11 0-15 10-15 10-15l21 4v-3l-34-15c0 8-6 8-6 8l-13-2-1 6 5 3-7 11h-3c0-5-19-5-19-5l6-22c-17-8-18 7-18 7h-2l-3-6h-3l-1 5h-12l-8 9-9-3 6-6-6-12c12 0 18-14 18-14l-74 5c0 10 21 7 21 7 23-3 26 5 26 5l-23-2-21 3-3 9-6-4-6-5-15-6c-9 6-14 5-14 5l-10-6-10-10c-12-9-65-99-65-99-39-65-107-68-107-68zm-10 367 12 48 7 32c6 20 3 33 3 33l-19 28-23 30c-27 17-47 23-47 23l-51 7c-25 3-53 29-53 29-28 24-38 23-38 23-5 3-11 4-11 4-6-15 6-24 6-24-4-6 3-23 3-23l15-18 11-21 6-26c11-7 9-15 9-15l52-60 63-28c45-19 55-42 55-42zm1023-201 39-15 40-11 36-4 15-6 41-2 41 2 16 1 17 6 12 18 14 26s-8 39 0 47c0 0-6 12-9 89l-8 83-6 59 5 83s0 16-8 43c0 0 9 42 0 51 0 0 20 126 17 133l-11 27-9 26-1 15 4 5-3 18 2 17s-2 13-8 13l-15-10-12-14v-1s-26-22-38-16c0 0 0 37 24 74l5 3s3 17 31 61l3 6 23 68s17 24 83 54l6-1v-5s6 0 20-16c0 0 18-23 20-49v-51l6-36v-37l-9-33s-5-26 6-30c0 0 0-53-5-56 0 0 9-41 3-88l2-37v-38l-6-83-2-85-3-76-9-72s3-21 8-29c0 0-3-12 1-50 0 0-13-1-6-48l9-58s-3-15-29-48l-37-41s-23-12-35-9l-80 12s-56 6-71 23l-20-2-21 5-3 3-38 4-30 6h-11l-39 14-35 17-35 13s-31 26-47 23c0 0-68 17-95 33 0 0 0 2 18 6 0 0 18 5 20 15l20 6s48 8 75-10c0 0 6 3 40-12 0 0 7-9 24-9l21-12z"/></g></svg>
